<svg version="1.1" id="Layer_1" xmlns="http://www.w3.org/2000/svg" xmlns:xlink="http://www.w3.org/1999/xlink" x="0px" y="0px"
	 width="100%" viewBox="0 0 424 408" enable-background="new 0 0 424 408" xml:space="preserve">
<path fill="#FFFFFF" opacity="1.000000" stroke="none" 
	d="
M425.000000,36.000000 
	C425.000000,86.354225 425.000000,136.708450 424.643677,187.501068 
	C423.051605,187.403091 421.815887,186.866745 419.447327,185.838730 
	C421.208344,190.792435 420.637848,195.402237 425.000000,198.000000 
	C425.000000,252.020889 425.000000,306.041779 424.531342,360.531342 
	C415.733643,361.000000 407.404602,360.994751 399.075562,361.001099 
	C381.120148,361.014771 371.742798,370.082764 372.138306,387.953186 
	C372.293976,394.986450 373.999969,401.985413 375.000000,409.000000 
	C352.312439,409.000000 329.624878,409.000000 306.534241,408.661743 
	C306.831879,406.989502 307.532593,405.655487 308.469147,403.872559 
	C305.805634,404.363586 303.924438,404.710388 302.043243,405.057190 
	C301.973083,404.779816 301.902954,404.502411 301.832794,404.225037 
	C303.706787,403.353638 305.580750,402.482269 307.491486,401.593781 
	C306.253662,397.213745 303.207275,395.865021 299.771912,397.444031 
	C296.263397,399.056702 296.626221,402.494141 298.092621,405.637238 
	C298.635742,406.801361 299.358948,407.881531 300.000000,409.000000 
	C297.299988,409.000000 294.599976,409.000000 291.464966,408.584503 
	C291.722290,405.812988 292.414642,403.456970 293.108429,401.095978 
	C291.221222,400.562927 289.049957,399.949646 286.038605,399.099091 
	C286.741516,402.647278 287.370758,405.823639 288.000000,409.000000 
	C285.629425,409.000000 283.258881,409.000000 280.511414,408.652069 
	C281.653625,407.814301 283.172729,407.324432 284.691833,406.834595 
	C283.928833,406.041321 283.165833,405.248047 282.402832,404.454773 
	C279.300110,404.222198 276.976654,405.035828 277.000000,409.000000 
	C259.979095,409.000000 242.958206,409.000000 225.498672,408.807220 
	C225.060028,408.614441 225.103043,408.226624 225.491287,408.093079 
	C231.513733,407.055237 237.127258,405.970490 242.790726,405.321899 
	C245.674240,404.991669 248.665482,405.695892 251.576126,405.487335 
	C256.189575,405.156799 260.866364,404.842010 265.350555,403.804138 
	C270.481445,402.616547 276.163025,401.661896 280.246338,398.719849 
	C284.063202,395.969788 292.158325,398.337769 291.717651,390.046112 
	C291.701782,389.748108 292.386505,389.296478 292.826752,389.108765 
	C296.941437,387.354248 300.937714,384.835541 305.233948,384.109009 
	C311.444061,383.058777 316.209564,380.148926 321.050446,376.411285 
	C326.726257,372.029053 331.232300,365.898224 339.139618,364.465240 
	C341.658417,364.008789 343.921997,361.047180 345.883820,358.856995 
	C349.287933,355.056671 352.082794,350.686340 355.644592,347.056946 
	C361.539856,341.049835 368.284393,335.831451 373.826782,329.537292 
	C378.022919,324.771973 380.767670,318.754150 384.424103,313.477905 
	C386.399689,310.627075 389.251495,308.373138 391.158203,305.486725 
	C398.681366,294.097992 401.987946,281.102142 405.205109,268.048218 
	C406.046967,264.632263 405.920563,259.690033 410.858154,259.214661 
	C414.237305,258.889343 414.529541,257.020477 414.873871,254.692291 
	C415.989380,247.149719 416.434021,239.443466 418.283356,232.088470 
	C421.339050,219.935638 419.895203,208.495758 415.165680,197.228012 
	C410.492523,197.528168 406.300293,197.975876 404.893768,203.583313 
	C404.237915,206.197876 401.818542,206.597687 399.750397,204.783752 
	C397.909576,203.169205 395.901886,201.437988 394.827148,199.321854 
	C392.703369,195.139984 388.857574,195.491226 385.747589,196.124268 
	C382.739929,196.736496 380.097443,198.642319 380.051971,203.039734 
	C379.973297,210.653763 379.416840,218.335007 378.196533,225.847672 
	C376.498077,236.303894 374.353149,246.719788 371.740417,256.985260 
	C369.597717,265.404266 367.370728,274.010925 363.563477,281.737335 
	C359.893280,289.185577 353.966644,295.491638 349.353058,302.510986 
	C334.929718,324.455475 314.000702,338.944672 291.819244,351.525970 
	C273.602417,361.858551 253.083908,366.135956 232.513184,369.058594 
	C224.505402,370.196320 216.147415,368.630829 208.029846,369.291199 
	C196.396896,370.237488 185.105606,369.318481 173.950531,365.995544 
	C166.317917,363.721893 158.354095,362.284302 151.046310,359.249725 
	C132.129181,351.394348 113.788261,342.381287 99.427017,327.120636 
	C96.370438,323.872620 93.524910,320.425049 90.447556,317.197754 
	C87.011314,313.594147 83.478371,310.077789 79.886482,306.628632 
	C73.381386,300.382050 70.248390,291.032104 61.497875,286.797150 
	C60.347660,286.240509 59.571709,284.520905 59.021839,283.176544 
	C55.433617,274.403564 51.755379,265.658386 48.516178,256.755066 
	C46.556477,251.368591 45.147362,245.757172 43.853771,240.162903 
	C43.156273,237.146484 43.282131,233.946716 42.934185,230.841141 
	C41.678314,219.631744 39.433926,208.432358 39.372978,197.219330 
	C39.316730,186.870377 41.140804,176.432358 42.905319,166.165680 
	C51.501587,116.148949 78.624283,78.288063 120.561142,50.871609 
	C155.532303,28.009022 194.204117,21.324736 235.203156,27.898249 
	C273.093842,33.973389 306.180420,49.657078 332.663086,78.049469 
	C334.736633,80.272545 336.955109,82.360420 339.106232,84.511124 
	C339.705444,84.250961 340.304688,83.990799 340.903900,83.730637 
	C340.701080,81.841049 341.089722,79.577271 340.177979,78.136200 
	C337.968384,74.643730 335.472046,71.208199 332.525757,68.328262 
	C320.973907,57.036636 309.098999,46.053951 295.249725,37.579563 
	C287.220337,32.666382 279.037567,27.882318 270.499176,23.966110 
	C264.997803,21.442867 258.727509,20.593781 252.799042,19.004721 
	C246.439316,17.300058 240.106674,15.479693 233.703064,13.958990 
	C230.026794,13.085971 226.182495,12.910677 222.519211,11.998231 
	C221.207153,11.671427 220.204559,10.102246 219.060730,9.100100 
	C220.416382,8.095621 221.699554,6.346437 223.139343,6.206308 
	C233.257782,5.221534 243.270111,5.047537 252.546066,10.551600 
	C254.681503,11.818704 257.632660,11.711084 260.208405,12.236098 
	C260.448090,11.553750 260.687744,10.871402 260.927399,10.189054 
	C256.976685,8.142488 252.753616,4.036321 249.136810,4.514635 
	C243.173080,5.303319 239.102249,1.635019 234.000000,1.000000 
	C297.666687,1.000000 361.333374,1.000000 425.000000,1.000000 
	C425.000000,10.098707 425.000000,19.080696 424.676239,28.548313 
	C414.523804,30.945715 413.675995,33.448582 421.269409,41.519650 
	C420.928986,38.858219 420.588531,36.196793 420.151306,32.778553 
	C422.399872,34.272491 423.699951,35.136246 425.000000,36.000000 
M235.066803,109.805222 
	C231.849625,121.128944 227.424042,132.274811 225.724579,143.821915 
	C223.652603,157.899918 223.358551,172.314774 223.346771,186.584793 
	C223.341873,192.516968 224.994247,199.031540 227.833191,204.219574 
	C230.601974,209.279419 235.621887,213.238754 240.089172,217.188461 
	C242.757278,219.547424 246.130417,222.224976 249.416199,222.569443 
	C261.422119,223.828156 271.522675,218.524094 280.227173,210.910324 
	C286.529419,205.397797 292.014923,198.951508 298.723480,192.036346 
	C298.960327,194.228836 299.138794,194.844009 299.074127,195.432480 
	C296.881409,215.398468 295.318787,235.464813 292.196075,255.285233 
	C290.459839,266.305420 291.593536,276.576721 295.508820,286.502167 
	C297.694519,292.042938 301.392426,297.309204 305.490936,301.685852 
	C309.880646,306.373474 315.758362,304.282227 317.946411,298.348602 
	C318.503510,296.837769 319.829224,295.233612 321.234650,294.485046 
	C325.004181,292.477264 324.895905,288.964142 323.540466,286.377014 
	C322.839111,285.038330 318.737396,284.385010 316.732758,285.068054 
	C313.249176,286.254913 311.427551,285.060120 310.566956,282.244568 
	C309.086334,277.400513 307.265839,272.436310 307.086121,267.468353 
	C306.775055,258.867371 306.957062,250.137726 308.098053,241.618179 
	C310.465759,223.938980 313.361389,206.319565 316.522461,188.762466 
	C317.934052,180.922211 320.859619,173.364120 322.480560,165.549866 
	C325.321838,151.852631 327.617310,138.040985 324.908752,124.008713 
	C324.638916,122.610703 323.656982,120.678741 322.518219,120.229195 
	C315.309052,117.383209 309.594574,121.830620 308.979401,129.551056 
	C308.256256,138.626282 308.255432,148.270538 304.991241,156.497482 
	C301.229919,165.977264 295.064362,174.870331 288.420746,182.731812 
	C282.274384,190.004883 274.619751,196.310272 266.728058,201.729248 
	C254.995743,209.785416 239.461792,204.081268 238.055222,187.309616 
	C237.279129,178.055649 236.762939,168.705643 237.198441,159.449234 
	C237.511322,152.799011 239.542542,146.221634 240.898148,139.630478 
	C242.598099,131.365082 245.052216,123.190521 245.957626,114.844070 
	C246.859100,106.533760 245.525909,105.811081 236.571289,105.721672 
	C235.363647,103.127213 234.156006,100.532761 232.948364,97.938309 
	C232.366913,98.129128 231.785446,98.319946 231.203995,98.510757 
	C231.509293,102.291885 231.250946,106.217850 235.066803,109.805222 
M236.069824,264.631287 
	C239.437744,269.890900 241.089600,270.220398 243.534866,267.413086 
	C241.887222,265.160767 240.490265,263.251129 239.759827,261.076874 
	C241.500168,260.296356 243.240509,259.515839 245.047592,259.531311 
	C245.676376,263.688812 248.098267,265.658142 252.236053,264.914398 
	C253.645142,264.661163 254.889511,263.491577 256.209137,262.740692 
	C255.949326,262.329498 255.689499,261.918335 255.429672,261.507141 
	C253.604752,261.663361 251.779831,261.819611 249.062012,262.052277 
	C256.286285,257.750977 256.338501,257.542572 251.922318,253.215118 
	C251.386963,248.612122 247.605042,246.614853 244.273376,247.381226 
	C237.103470,249.030533 230.215363,251.942520 223.255402,254.457993 
	C212.688705,258.277039 202.315018,262.726501 191.562500,265.903412 
	C183.461121,268.297028 174.617371,268.263489 166.609894,270.866394 
	C157.952362,273.680634 149.370621,274.456299 140.745407,272.853607 
	C132.699585,271.358582 124.831177,270.069550 118.780281,262.309235 
	C113.645813,255.724228 112.372536,248.948639 112.043365,241.641052 
	C111.551407,230.719604 115.619743,220.496048 119.661911,210.704086 
	C124.600151,198.741409 131.178741,187.458954 136.966461,175.841736 
	C138.415817,172.932541 139.053284,169.497879 140.938019,166.951782 
	C144.841110,161.679108 149.198196,156.720016 153.618484,151.859238 
	C157.735153,147.332336 162.005630,142.912476 166.533432,138.803680 
	C169.600403,136.020523 173.529068,135.117584 178.041275,135.489868 
	C176.927490,137.646332 175.417877,139.219727 175.435669,140.775665 
	C175.501617,146.545990 171.577225,149.712555 168.087616,153.230515 
	C166.803925,154.524628 165.289246,155.620667 164.160629,157.031586 
	C160.995224,160.988815 161.886475,165.746201 166.359207,169.607742 
	C170.158920,172.888229 174.451874,172.821503 177.678421,168.641357 
	C182.524048,162.363586 187.896957,156.160263 191.098083,149.048615 
	C193.765625,143.122391 194.955292,135.834946 194.460480,129.328262 
	C193.474396,116.361626 177.856384,112.520798 167.908768,117.329788 
	C161.542770,120.407303 155.934845,125.052956 149.177689,129.001999 
	C147.606171,129.270233 145.895462,129.232086 144.491791,129.869781 
	C141.464249,131.245178 140.948883,133.104370 143.974869,135.662399 
	C143.021606,136.810547 142.068359,137.958694 140.538452,138.657089 
	C139.516739,135.112320 137.133591,132.873062 133.606949,134.290436 
	C131.942123,134.959549 130.342545,137.826202 130.197556,139.805847 
	C129.920456,143.589096 132.344193,145.491898 135.958084,145.656372 
	C132.977371,150.162720 129.367310,154.378204 127.126678,159.226578 
	C118.214851,178.510422 108.874138,197.669922 101.412857,217.522125 
	C97.032532,229.176834 93.792511,241.418854 96.532379,254.855606 
	C98.946388,266.694366 105.763809,274.403870 114.872345,279.967621 
	C124.434082,285.808167 135.542938,288.582611 147.000259,289.910553 
	C149.000946,293.756683 148.072067,299.767761 155.112534,301.009399 
	C153.540604,296.713806 152.270859,293.244019 151.770767,289.784698 
	C152.794876,289.803314 153.818970,289.821930 155.433167,290.335510 
	C156.846268,296.867218 159.700714,299.056396 164.092392,296.815063 
	C169.338272,294.137787 166.199448,290.505493 165.824219,287.008759 
	C166.880142,286.950256 167.936081,286.891754 169.051910,287.606140 
	C171.126572,289.570007 173.201233,291.533875 175.378372,293.594757 
	C175.211380,293.775482 174.195358,294.875122 172.979141,296.191437 
	C179.069489,297.161194 181.701935,294.435638 180.244202,289.367523 
	C179.746902,287.638458 179.430038,285.857544 179.594681,283.845734 
	C180.376770,283.651306 181.158859,283.456909 182.082108,283.961761 
	C183.055069,287.969849 186.383102,289.180450 189.235214,287.657318 
	C191.123947,286.648651 191.618790,283.029938 193.412979,280.218384 
	C194.719391,280.061218 196.125122,280.161713 197.315292,279.702972 
	C202.908920,277.546875 208.443329,275.237213 213.998672,273.728241 
	C215.905334,278.732056 217.050476,278.884094 223.346176,274.895233 
	C223.154358,272.839996 222.957199,270.727448 223.348251,268.201538 
	C225.231323,267.786591 227.114410,267.371643 229.045288,267.575195 
	C232.502960,270.509918 225.369522,270.807220 227.561447,273.439056 
	C234.053848,271.875366 234.694046,270.980072 233.213287,265.329987 
	C234.138504,264.856964 235.063721,264.383911 236.069824,264.631287 
M393.068970,49.399853 
	C394.872437,49.542240 396.675903,49.684624 399.397705,49.899517 
	C397.243835,51.179482 395.824158,52.023117 394.404510,52.866756 
	C394.648560,53.407494 394.892609,53.948235 395.136627,54.488972 
	C397.326599,53.420258 401.413086,52.274830 401.373505,51.296295 
	C401.214325,47.360703 400.031158,43.376648 398.561554,39.674412 
	C398.322845,39.073055 394.071930,39.023590 392.812714,40.077602 
	C389.896454,42.518646 390.238495,45.852146 393.068970,49.399853 
M121.594475,152.119843 
	C122.383919,152.692749 123.716537,153.884079 123.878136,153.742157 
	C125.366486,152.434906 127.584152,151.010147 127.779739,149.399780 
	C128.077469,146.948410 127.258583,144.187851 126.281410,141.819580 
	C125.684425,140.372742 123.314262,138.187531 122.757843,138.454483 
	C120.621239,139.479553 117.724663,141.064835 117.239967,142.979843 
	C115.879959,148.353165 120.148865,149.194122 125.308167,149.294479 
	C123.584229,150.515060 122.817017,151.058243 121.594475,152.119843 
M114.548256,147.300507 
	C112.307747,145.191406 110.771431,141.163971 106.596024,144.009399 
	C103.939262,145.819931 102.899544,148.578400 104.828133,151.283646 
	C105.968895,152.883804 108.350731,154.777603 109.974052,154.609055 
	C113.313454,154.262329 115.656319,152.007690 114.548256,147.300507 
M382.598602,44.004654 
	C379.203918,44.430969 376.361572,46.379623 377.407135,49.674648 
	C378.106018,51.877201 381.239075,53.765018 383.698761,54.703182 
	C384.560486,55.031853 387.634277,52.311028 387.990906,50.622242 
	C388.664703,47.431698 387.486389,44.424526 382.598602,44.004654 
M404.522369,42.898411 
	C406.460175,43.853241 408.521698,45.791374 410.311096,45.566315 
	C414.554077,45.032654 414.617950,41.309032 413.779510,38.182472 
	C412.909149,34.936806 410.035919,34.078159 407.004181,34.943737 
	C403.084045,36.062954 402.295654,38.717789 404.522369,42.898411 
M224.982574,101.528366 
	C219.704361,101.064095 218.420868,103.370888 220.461044,108.017715 
	C221.168243,109.628494 221.704453,112.564445 222.517288,112.635880 
	C224.647522,112.823074 227.158310,112.179054 228.951797,111.003410 
	C229.685333,110.522568 229.360428,107.667290 228.792007,106.166901 
	C228.185028,104.564766 226.722229,103.286873 224.982574,101.528366 
M194.194565,112.673531 
	C192.319580,116.265076 192.486786,119.679497 196.373352,121.487907 
	C199.144577,122.777359 202.181671,122.361259 204.826569,118.409752 
	C201.696320,118.671951 199.821487,118.828987 197.144196,119.053246 
	C199.550156,117.657837 201.205338,116.697876 202.793198,115.776955 
	C200.920883,110.482933 199.977264,110.086739 194.194565,112.673531 
M272.791962,245.206757 
	C271.377045,247.243118 271.677826,254.705856 273.533081,255.270950 
	C275.365234,255.829041 277.660767,255.381805 279.602783,254.838562 
	C280.528687,254.579544 281.697784,253.100708 281.739716,252.130478 
	C281.927094,247.793427 277.876221,244.461151 272.791962,245.206757 
M324.230988,396.315491 
	C325.304413,399.587067 327.965515,399.620331 330.285461,398.562683 
	C331.739502,397.899780 333.795624,395.353943 333.456543,394.556458 
	C332.399323,392.069946 330.649811,389.584198 328.506012,387.988525 
	C327.564453,387.287720 325.019836,388.740723 323.203094,389.215759 
	C323.354858,389.715179 323.506622,390.214600 323.658386,390.713989 
	C325.242828,390.601990 326.827271,390.489960 328.327148,390.383911 
	C326.753967,392.313568 325.433594,393.933136 324.230988,396.315491 
M102.349617,154.363907 
	C100.247307,150.468201 98.144989,146.572479 95.949265,142.503662 
	C95.330505,142.997726 94.338554,143.551834 94.407608,143.769745 
	C95.829529,148.257080 96.834793,153.010712 99.115677,157.035461 
	C100.272346,159.076492 103.138046,158.657425 102.349617,154.363907 
M370.551147,44.102810 
	C368.175171,44.046192 367.405640,44.913109 368.213531,47.094719 
	C369.285187,49.988438 370.694885,52.758701 371.730225,55.663666 
	C372.899872,58.945553 374.693695,58.277031 376.386963,57.329685 
	C374.509094,52.848888 372.789001,48.744556 370.551147,44.102810 
M210.449219,117.584709 
	C211.552170,114.255928 206.066483,110.255920 212.394577,107.459465 
	C211.970383,107.053391 211.546204,106.647324 211.122009,106.241249 
	C209.134720,106.933136 207.147415,107.625015 205.055984,108.353157 
	C205.805069,111.085464 206.149658,113.256851 207.025269,115.187401 
	C207.536865,116.315430 208.896774,117.058716 210.449219,117.584709 
M258.036499,255.234482 
	C258.966522,257.403900 259.896515,259.573303 260.826538,261.742737 
	C261.351776,261.706573 261.877045,261.670441 262.402283,261.634277 
	C262.402283,257.959930 262.402283,254.285583 262.402283,249.562027 
	C259.934479,249.328461 257.810181,250.271530 258.036499,255.234482 
M313.803375,398.728088 
	C314.360138,396.720612 314.916901,394.713135 315.787811,391.572968 
	C313.611938,392.691956 310.692566,393.499695 310.690613,394.314453 
	C310.682190,397.821014 311.530243,401.329651 312.066376,404.837494 
	C312.880585,404.717682 313.694824,404.597839 314.509033,404.478027 
	C314.336670,402.808502 314.164337,401.138947 313.803375,398.728088 
M81.981331,297.488770 
	C84.074722,299.936523 86.168121,302.384247 88.261513,304.832001 
	C88.731606,304.435944 89.201691,304.039886 89.671783,303.643829 
	C86.829033,299.776215 83.986282,295.908600 81.143539,292.040985 
	C80.740166,292.317505 80.336784,292.594025 79.933411,292.870514 
	C80.503616,294.193298 81.073822,295.516052 81.981331,297.488770 
M283.840149,245.635117 
	C285.908234,251.100922 285.908234,251.100922 289.207458,251.448410 
	C287.823547,247.698456 286.558838,244.271423 285.294098,240.844391 
	C284.692413,240.959503 284.090698,241.074631 283.489014,241.189743 
	C283.489014,242.436722 283.489014,243.683685 283.840149,245.635117 
M338.225677,394.223602 
	C339.088470,394.020111 339.951233,393.816650 340.814026,393.613159 
	C339.670776,390.321472 338.527557,387.029785 337.384308,383.738098 
	C336.528046,384.032257 335.671783,384.326416 334.815552,384.620575 
	C335.822815,387.608002 336.830109,390.595428 338.225677,394.223602 
z"/>
<path fill="#ABABAB" opacity="1.000000" stroke="none" 
	d="
M233.539368,1.000000 
	C239.102249,1.635019 243.173080,5.303319 249.136810,4.514635 
	C252.753616,4.036321 256.976685,8.142488 260.927399,10.189054 
	C260.687744,10.871402 260.448090,11.553750 260.208405,12.236098 
	C257.632660,11.711084 254.681503,11.818704 252.546066,10.551600 
	C243.270111,5.047537 233.257782,5.221534 223.139343,6.206308 
	C221.699554,6.346437 220.416382,8.095621 219.060730,9.100100 
	C220.204559,10.102246 221.207153,11.671427 222.519211,11.998231 
	C226.182495,12.910677 230.026794,13.085971 233.703064,13.958990 
	C240.106674,15.479693 246.439316,17.300058 252.799042,19.004721 
	C258.727509,20.593781 264.997803,21.442867 270.499176,23.966110 
	C279.037567,27.882318 287.220337,32.666382 295.249725,37.579563 
	C309.098999,46.053951 320.973907,57.036636 332.525757,68.328262 
	C335.472046,71.208199 337.968384,74.643730 340.177979,78.136200 
	C341.089722,79.577271 340.701080,81.841049 340.903900,83.730637 
	C340.304688,83.990799 339.705444,84.250961 339.106232,84.511124 
	C336.955109,82.360420 334.736633,80.272545 332.663086,78.049469 
	C306.180420,49.657078 273.093842,33.973389 235.203156,27.898249 
	C194.204117,21.324736 155.532303,28.009022 120.561142,50.871609 
	C78.624283,78.288063 51.501587,116.148949 42.905319,166.165680 
	C41.140804,176.432358 39.316730,186.870377 39.372978,197.219330 
	C39.433926,208.432358 41.678314,219.631744 42.934185,230.841141 
	C43.282131,233.946716 43.156273,237.146484 43.853771,240.162903 
	C45.147362,245.757172 46.556477,251.368591 48.516178,256.755066 
	C51.755379,265.658386 55.433617,274.403564 59.021839,283.176544 
	C59.571709,284.520905 60.347660,286.240509 61.497875,286.797150 
	C70.248390,291.032104 73.381386,300.382050 79.886482,306.628632 
	C83.478371,310.077789 87.011314,313.594147 90.447556,317.197754 
	C93.524910,320.425049 96.370438,323.872620 99.427017,327.120636 
	C113.788261,342.381287 132.129181,351.394348 151.046310,359.249725 
	C158.354095,362.284302 166.317917,363.721893 173.950531,365.995544 
	C185.105606,369.318481 196.396896,370.237488 208.029846,369.291199 
	C216.147415,368.630829 224.505402,370.196320 232.513184,369.058594 
	C253.083908,366.135956 273.602417,361.858551 291.819244,351.525970 
	C314.000702,338.944672 334.929718,324.455475 349.353058,302.510986 
	C353.966644,295.491638 359.893280,289.185577 363.563477,281.737335 
	C367.370728,274.010925 369.597717,265.404266 371.740417,256.985260 
	C374.353149,246.719788 376.498077,236.303894 378.196533,225.847672 
	C379.416840,218.335007 379.973297,210.653763 380.051971,203.039734 
	C380.097443,198.642319 382.739929,196.736496 385.747589,196.124268 
	C388.857574,195.491226 392.703369,195.139984 394.827148,199.321854 
	C395.901886,201.437988 397.909576,203.169205 399.750397,204.783752 
	C401.818542,206.597687 404.237915,206.197876 404.893768,203.583313 
	C406.300293,197.975876 410.492523,197.528168 415.165680,197.228012 
	C419.895203,208.495758 421.339050,219.935638 418.283356,232.088470 
	C416.434021,239.443466 415.989380,247.149719 414.873871,254.692291 
	C414.529541,257.020477 414.237305,258.889343 410.858154,259.214661 
	C405.920563,259.690033 406.046967,264.632263 405.205109,268.048218 
	C401.987946,281.102142 398.681366,294.097992 391.158203,305.486725 
	C389.251495,308.373138 386.399689,310.627075 384.424103,313.477905 
	C380.767670,318.754150 378.022919,324.771973 373.826782,329.537292 
	C368.284393,335.831451 361.539856,341.049835 355.644592,347.056946 
	C352.082794,350.686340 349.287933,355.056671 345.883820,358.856995 
	C343.921997,361.047180 341.658417,364.008789 339.139618,364.465240 
	C331.232300,365.898224 326.726257,372.029053 321.050446,376.411285 
	C316.209564,380.148926 311.444061,383.058777 305.233948,384.109009 
	C300.937714,384.835541 296.941437,387.354248 292.826752,389.108765 
	C292.386505,389.296478 291.701782,389.748108 291.717651,390.046112 
	C292.158325,398.337769 284.063202,395.969788 280.246338,398.719849 
	C276.163025,401.661896 270.481445,402.616547 265.350555,403.804138 
	C260.866364,404.842010 256.189575,405.156799 251.576126,405.487335 
	C248.665482,405.695892 245.674240,404.991669 242.790726,405.321899 
	C237.127258,405.970490 231.513733,407.055237 225.177673,408.028870 
	C223.983887,408.398773 223.491943,408.699371 223.000000,409.000000 
	C222.555557,409.000000 222.111099,409.000000 221.361176,408.607635 
	C220.451950,405.049255 218.632996,403.602905 215.318130,403.444641 
	C208.684570,403.127869 201.978241,403.014374 195.458359,401.901062 
	C179.795135,399.226593 164.105042,396.514374 148.661163,392.830688 
	C140.659576,390.922150 133.135925,386.970093 125.448570,383.814026 
	C123.680786,383.088287 122.127487,381.840118 120.475479,380.832367 
	C120.730827,380.374695 120.986176,379.917023 121.241531,379.459351 
	C125.290977,381.232025 129.298218,383.111023 133.404175,384.741425 
	C136.309784,385.895111 139.492310,387.821960 142.300018,387.459229 
	C149.076035,386.583832 154.985916,387.647614 160.498108,391.656799 
	C161.622055,392.474335 163.238235,392.774780 164.674255,392.970245 
	C167.683105,393.379974 170.751450,393.388733 173.742737,393.881531 
	C177.174850,394.446930 180.523376,395.676392 183.962830,395.963776 
	C185.350052,396.079712 186.882080,394.462769 188.348206,393.634430 
	C185.976883,391.800507 184.246323,391.250275 182.478149,390.879303 
	C169.233002,388.100159 155.647812,386.777710 143.414780,380.064880 
	C135.703125,375.833130 127.494972,372.513184 119.603462,368.595032 
	C118.343880,367.969666 117.578850,366.348206 116.585182,365.187225 
	C116.879150,364.908539 117.173111,364.629852 117.467079,364.351196 
	C120.669487,365.745514 123.871895,367.139862 127.074303,368.534210 
	C127.334160,366.991669 127.170425,366.441528 126.807266,366.223297 
	C121.750305,363.184753 116.653557,360.212433 111.592636,357.180359 
	C107.930313,354.986145 104.651192,352.403229 99.789154,352.612061 
	C97.514610,352.709778 95.128876,350.218414 91.660744,348.261200 
	C94.231270,347.321808 95.313278,346.926422 97.726898,346.044342 
	C93.403442,341.942230 90.225197,337.614166 85.967651,335.153625 
	C76.379288,329.612183 72.256927,319.974121 66.485680,311.528015 
	C66.137726,311.018799 66.291695,310.179169 65.969833,309.637146 
	C65.042114,308.074829 64.090988,306.506073 62.962563,305.088287 
	C61.436096,303.170380 59.327198,301.607269 58.209923,299.498871 
	C56.676228,296.604584 55.837097,293.342133 54.701263,290.237122 
	C49.396244,275.734741 43.921158,261.291534 38.846367,246.709030 
	C35.438896,236.917618 32.704918,226.893631 29.446497,217.047546 
	C28.312138,213.619781 26.924023,210.190964 22.768291,208.919220 
	C21.669535,208.582947 20.388426,206.868362 20.270422,205.679550 
	C19.944269,202.393829 20.096664,199.047821 20.230181,195.732498 
	C20.396172,191.610764 21.502298,187.350006 20.757690,183.423233 
	C20.137541,180.152786 18.694168,176.051407 13.278819,175.748016 
	C12.067734,191.489212 9.516607,207.192291 11.701959,222.568481 
	C13.870561,237.826843 19.025047,252.660828 22.870035,267.680939 
	C22.511557,267.899261 22.153078,268.117584 21.794600,268.335907 
	C17.852661,261.135925 13.624296,254.073959 10.066524,246.688919 
	C7.572152,241.511215 7.231311,235.809586 6.981219,229.956146 
	C6.682166,222.956711 4.224293,216.077240 3.162249,209.075912 
	C1.714065,199.529068 4.508558,190.356415 6.115018,181.064423 
	C6.728278,177.517227 5.687029,173.713257 5.980745,170.073196 
	C6.267435,166.520203 7.130378,162.983505 8.043464,159.519562 
	C8.994126,155.913086 10.214478,152.368225 11.496396,148.862045 
	C12.279963,146.718918 13.750102,144.788620 14.308390,142.608231 
	C16.234619,135.085358 17.041737,127.157166 19.865191,120.011658 
	C23.747416,110.186661 28.541183,100.614189 33.947933,91.530861 
	C38.916485,83.183693 45.210361,75.624939 50.936909,67.730850 
	C51.219982,67.340637 51.661243,67.065193 52.223087,66.562531 
	C53.114132,67.383995 53.994987,68.196068 55.181839,69.290245 
	C56.953346,67.396843 58.465782,65.663628 60.100101,64.054176 
	C66.473122,57.778145 72.226486,50.616966 79.424980,45.490658 
	C92.650688,36.072159 106.009781,26.618229 121.423058,20.796244 
	C134.161591,15.984568 146.634048,10.249220 159.687881,6.565645 
	C168.976807,3.944462 179.043472,4.112512 188.742981,2.878187 
	C190.217789,2.690511 191.583710,1.647430 193.000000,1.000001 
	C193.750000,1.000000 194.500000,1.000000 195.738251,1.354414 
	C197.484329,1.472552 198.742172,1.236275 200.000000,0.999999 
	C200.750000,1.000000 201.500000,1.000000 202.567932,1.381247 
	C204.838562,3.171610 206.749237,4.298880 208.000000,1.000000 
	C209.388885,1.000000 210.777786,1.000000 212.528168,1.387548 
	C215.926437,1.516731 218.963226,1.258365 222.000000,1.000000 
	C225.692902,1.000000 229.385818,1.000000 233.539368,1.000000 
z"/>
<path fill="#FFFFFF" opacity="1.000000" stroke="none" 
	d="
M192.531342,1.000001 
	C191.583710,1.647430 190.217789,2.690511 188.742981,2.878187 
	C179.043472,4.112512 168.976807,3.944462 159.687881,6.565645 
	C146.634048,10.249220 134.161591,15.984568 121.423058,20.796244 
	C106.009781,26.618229 92.650688,36.072159 79.424980,45.490658 
	C72.226486,50.616966 66.473122,57.778145 60.100101,64.054176 
	C58.465782,65.663628 56.953346,67.396843 55.181839,69.290245 
	C53.994987,68.196068 53.114132,67.383995 52.223087,66.562531 
	C51.661243,67.065193 51.219982,67.340637 50.936909,67.730850 
	C45.210361,75.624939 38.916485,83.183693 33.947933,91.530861 
	C28.541183,100.614189 23.747416,110.186661 19.865191,120.011658 
	C17.041737,127.157166 16.234619,135.085358 14.308390,142.608231 
	C13.750102,144.788620 12.279963,146.718918 11.496396,148.862045 
	C10.214478,152.368225 8.994126,155.913086 8.043464,159.519562 
	C7.130378,162.983505 6.267435,166.520203 5.980745,170.073196 
	C5.687029,173.713257 6.728278,177.517227 6.115018,181.064423 
	C4.508558,190.356415 1.714065,199.529068 3.162249,209.075912 
	C4.224293,216.077240 6.682166,222.956711 6.981219,229.956146 
	C7.231311,235.809586 7.572152,241.511215 10.066524,246.688919 
	C13.624296,254.073959 17.852661,261.135925 21.794600,268.335907 
	C22.153078,268.117584 22.511557,267.899261 22.870035,267.680939 
	C19.025047,252.660828 13.870561,237.826843 11.701959,222.568481 
	C9.516607,207.192291 12.067734,191.489212 13.278819,175.748016 
	C18.694168,176.051407 20.137541,180.152786 20.757690,183.423233 
	C21.502298,187.350006 20.396172,191.610764 20.230181,195.732498 
	C20.096664,199.047821 19.944269,202.393829 20.270422,205.679550 
	C20.388426,206.868362 21.669535,208.582947 22.768291,208.919220 
	C26.924023,210.190964 28.312138,213.619781 29.446497,217.047546 
	C32.704918,226.893631 35.438896,236.917618 38.846367,246.709030 
	C43.921158,261.291534 49.396244,275.734741 54.701263,290.237122 
	C55.837097,293.342133 56.676228,296.604584 58.209923,299.498871 
	C59.327198,301.607269 61.436096,303.170380 62.962563,305.088287 
	C64.090988,306.506073 65.042114,308.074829 65.969833,309.637146 
	C66.291695,310.179169 66.137726,311.018799 66.485680,311.528015 
	C72.256927,319.974121 76.379288,329.612183 85.967651,335.153625 
	C90.225197,337.614166 93.403442,341.942230 97.726898,346.044342 
	C95.313278,346.926422 94.231270,347.321808 91.660744,348.261200 
	C95.128876,350.218414 97.514610,352.709778 99.789154,352.612061 
	C104.651192,352.403229 107.930313,354.986145 111.592636,357.180359 
	C116.653557,360.212433 121.750305,363.184753 126.807266,366.223297 
	C127.170425,366.441528 127.334160,366.991669 127.074303,368.534210 
	C123.871895,367.139862 120.669487,365.745514 117.467079,364.351196 
	C117.173111,364.629852 116.879150,364.908539 116.585182,365.187225 
	C117.578850,366.348206 118.343880,367.969666 119.603462,368.595032 
	C127.494972,372.513184 135.703125,375.833130 143.414780,380.064880 
	C155.647812,386.777710 169.233002,388.100159 182.478149,390.879303 
	C184.246323,391.250275 185.976883,391.800507 188.348206,393.634430 
	C186.882080,394.462769 185.350052,396.079712 183.962830,395.963776 
	C180.523376,395.676392 177.174850,394.446930 173.742737,393.881531 
	C170.751450,393.388733 167.683105,393.379974 164.674255,392.970245 
	C163.238235,392.774780 161.622055,392.474335 160.498108,391.656799 
	C154.985916,387.647614 149.076035,386.583832 142.300018,387.459229 
	C139.492310,387.821960 136.309784,385.895111 133.404175,384.741425 
	C129.298218,383.111023 125.290977,381.232025 121.241531,379.459351 
	C120.986176,379.917023 120.730827,380.374695 120.475479,380.832367 
	C122.127487,381.840118 123.680786,383.088287 125.448570,383.814026 
	C133.135925,386.970093 140.659576,390.922150 148.661163,392.830688 
	C164.105042,396.514374 179.795135,399.226593 195.458359,401.901062 
	C201.978241,403.014374 208.684570,403.127869 215.318130,403.444641 
	C218.632996,403.602905 220.451950,405.049255 221.027863,408.607635 
	C148.312439,409.000000 75.624878,409.000000 2.375329,408.770020 
	C1.609211,408.259155 1.338096,408.079163 1.000000,408.000000 
	C1.000000,390.979095 1.000000,373.958221 1.374794,356.427246 
	C3.926572,354.466187 8.475909,355.608459 7.765879,351.037537 
	C7.194510,347.359253 6.484160,343.220734 1.000000,344.000000 
	C1.000000,229.666656 1.000000,115.333313 1.000000,1.000000 
	C14.426460,1.000000 27.744572,1.000000 41.570374,1.373619 
	C43.164272,5.012280 44.204334,8.293611 45.349373,11.537889 
	C46.550526,14.941167 47.713722,15.344563 50.102135,14.005475 
	C48.696648,9.549494 47.348324,5.274747 46.000000,1.000000 
	C48.041668,1.000000 50.083332,1.000000 52.534252,1.345100 
	C52.632885,2.458584 51.907795,3.343568 52.085323,3.974624 
	C52.757248,6.363101 53.309956,8.983734 54.752041,10.872527 
	C55.465290,11.806708 58.860062,12.103932 59.561432,11.336541 
	C60.926147,9.843373 61.539349,7.445857 61.896046,5.327329 
	C62.123978,3.973552 61.333752,2.448348 61.000000,1.000000 
	C62.066669,1.000000 63.133343,1.000000 64.602646,1.382339 
	C65.227646,7.181933 70.001892,5.367444 73.651825,6.430261 
	C71.327820,7.785943 69.737541,8.713616 67.136406,10.230963 
	C75.330429,11.071202 76.007767,10.214028 76.000000,1.000000 
	C114.687561,1.000000 153.375122,1.000000 192.531342,1.000001 
M78.914009,358.574860 
	C80.032745,359.573914 81.121391,360.609253 82.275284,361.565918 
	C88.161430,366.446167 90.385918,366.050415 94.698349,359.218811 
	C93.541008,358.326385 92.316986,357.476227 91.198807,356.504303 
	C85.930382,351.925140 79.623825,348.066223 75.709045,342.522827 
	C70.718079,335.455505 64.097908,332.077789 56.321095,328.691742 
	C60.733856,341.262848 65.529816,347.594757 78.914009,358.574860 
M14.369325,350.632111 
	C13.714520,343.703247 13.105540,342.538605 8.382114,342.297729 
	C10.191852,345.201874 12.001588,348.106018 14.369325,350.632111 
M104.761368,372.609497 
	C105.283875,372.126190 105.806374,371.642883 106.328873,371.159546 
	C103.502998,369.305786 100.677124,367.451996 97.851257,365.598236 
	C97.467979,366.180328 97.084694,366.762421 96.701416,367.344513 
	C99.176079,368.992798 101.650742,370.641113 104.761368,372.609497 
M95.577042,365.513031 
	C95.577042,365.513031 95.525856,365.512970 95.577042,365.513031 
z"/>
<path fill="#FCFCFC" opacity="1.000000" stroke="none" 
	d="
M375.460632,409.000000 
	C373.999969,401.985413 372.293976,394.986450 372.138306,387.953186 
	C371.742798,370.082764 381.120148,361.014771 399.075562,361.001099 
	C407.404602,360.994751 415.733643,361.000000 424.531342,361.000000 
	C425.000000,373.687561 425.000000,386.375122 424.531342,399.530945 
	C411.714325,400.007965 399.365936,400.016754 386.717712,399.729675 
	C386.417877,392.130890 386.417877,384.828003 386.417877,377.525116 
	C385.787445,377.399750 385.157013,377.274384 384.526581,377.148987 
	C383.787537,378.264160 382.707397,379.283936 382.364532,380.509888 
	C380.017700,388.901215 379.828339,397.077545 385.113495,404.656311 
	C385.998596,405.925507 386.383820,407.543274 387.000000,409.000000 
	C383.307098,409.000000 379.614166,409.000000 375.460632,409.000000 
z"/>
<path fill="#EBEBEB" opacity="1.000000" stroke="none" 
	d="
M387.017578,400.025574 
	C399.365936,400.016754 411.714325,400.007965 424.531342,399.999573 
	C425.000000,402.370575 425.000000,404.741119 424.777161,407.659485 
	C424.275177,408.405518 424.090424,408.669769 424.000000,409.000000 
	C414.312439,409.000000 404.624878,409.000000 394.456238,408.635681 
	C393.082092,407.223328 392.184296,406.179291 391.297028,405.126373 
	C389.866882,403.429199 388.443695,401.726135 387.017578,400.025574 
z"/>
<path fill="#F4F5F5" opacity="1.000000" stroke="none" 
	d="
M386.717712,399.729675 
	C388.443695,401.726135 389.866882,403.429199 391.297028,405.126373 
	C392.184296,406.179291 393.082092,407.223328 393.987610,408.635681 
	C391.958344,409.000000 389.916656,409.000000 387.437500,409.000000 
	C386.383820,407.543274 385.998596,405.925507 385.113495,404.656311 
	C379.828339,397.077545 380.017700,388.901215 382.364532,380.509888 
	C382.707397,379.283936 383.787537,378.264160 384.526581,377.148987 
	C385.157013,377.274384 385.787445,377.399750 386.417877,377.525116 
	C386.417877,384.828003 386.417877,392.130890 386.717712,399.729675 
z"/>
<path fill="#EBEBEB" opacity="1.000000" stroke="none" 
	d="
M300.428467,409.000000 
	C299.358948,407.881531 298.635742,406.801361 298.092621,405.637238 
	C296.626221,402.494141 296.263397,399.056702 299.771912,397.444031 
	C303.207275,395.865021 306.253662,397.213745 307.491486,401.593781 
	C305.580750,402.482269 303.706787,403.353638 301.832794,404.225037 
	C301.902954,404.502411 301.973083,404.779816 302.043243,405.057190 
	C303.924438,404.710388 305.805634,404.363586 308.469147,403.872559 
	C307.532593,405.655487 306.831879,406.989502 306.065552,408.661743 
	C304.285645,409.000000 302.571289,409.000000 300.428467,409.000000 
z"/>
<path fill="#EBEBEB" opacity="1.000000" stroke="none" 
	d="
M60.555836,1.000000 
	C61.333752,2.448348 62.123978,3.973552 61.896046,5.327329 
	C61.539349,7.445857 60.926147,9.843373 59.561432,11.336541 
	C58.860062,12.103932 55.465290,11.806708 54.752041,10.872527 
	C53.309956,8.983734 52.757248,6.363101 52.085323,3.974624 
	C51.907795,3.343568 52.632885,2.458584 52.971752,1.345100 
	C55.370556,1.000000 57.741116,1.000000 60.555836,1.000000 
z"/>
<path fill="#EBEBEB" opacity="1.000000" stroke="none" 
	d="
M75.541931,1.000000 
	C76.007767,10.214028 75.330429,11.071202 67.136406,10.230963 
	C69.737541,8.713616 71.327820,7.785943 73.651825,6.430261 
	C70.001892,5.367444 65.227646,7.181933 65.002640,1.382339 
	C68.361290,1.000000 71.722572,1.000000 75.541931,1.000000 
z"/>
<path fill="#EBEBEB" opacity="1.000000" stroke="none" 
	d="
M1.000000,344.460632 
	C6.484160,343.220734 7.194510,347.359253 7.765879,351.037537 
	C8.475909,355.608459 3.926572,354.466187 1.374794,355.958557 
	C1.000000,352.307098 1.000000,348.614166 1.000000,344.460632 
z"/>
<path fill="#EBEBEB" opacity="1.000000" stroke="none" 
	d="
M425.000000,35.562500 
	C423.699951,35.136246 422.399872,34.272491 420.151306,32.778553 
	C420.588531,36.196793 420.928986,38.858219 421.269409,41.519650 
	C413.675995,33.448582 414.523804,30.945715 424.676239,29.016972 
	C425.000000,31.041666 425.000000,33.083332 425.000000,35.562500 
z"/>
<path fill="#EBEBEB" opacity="1.000000" stroke="none" 
	d="
M45.600002,1.000000 
	C47.348324,5.274747 48.696648,9.549494 50.102135,14.005475 
	C47.713722,15.344563 46.550526,14.941167 45.349373,11.537889 
	C44.204334,8.293611 43.164272,5.012280 42.039032,1.373619 
	C43.066669,1.000000 44.133339,1.000000 45.600002,1.000000 
z"/>
<path fill="#EBEBEB" opacity="1.000000" stroke="none" 
	d="
M288.375000,409.000000 
	C287.370758,405.823639 286.741516,402.647278 286.038605,399.099091 
	C289.049957,399.949646 291.221222,400.562927 293.108429,401.095978 
	C292.414642,403.456970 291.722290,405.812988 291.014984,408.584503 
	C290.250000,409.000000 289.500000,409.000000 288.375000,409.000000 
z"/>
<path fill="#EBEBEB" opacity="1.000000" stroke="none" 
	d="
M425.000000,197.545898 
	C420.637848,195.402237 421.208344,190.792435 419.447327,185.838730 
	C421.815887,186.866745 423.051605,187.403091 424.643677,187.969727 
	C425.000000,191.030594 425.000000,194.061188 425.000000,197.545898 
z"/>
<path fill="#E1E2E2" opacity="1.000000" stroke="none" 
	d="
M277.375000,409.000000 
	C276.976654,405.035828 279.300110,404.222198 282.402832,404.454773 
	C283.165833,405.248047 283.928833,406.041321 284.691833,406.834595 
	C283.172729,407.324432 281.653625,407.814301 280.067261,408.652069 
	C279.250000,409.000000 278.500000,409.000000 277.375000,409.000000 
z"/>
<path fill="#FFFFFF" opacity="1.000000" stroke="none" 
	d="
M221.550018,1.000000 
	C218.963226,1.258365 215.926437,1.516731 212.944824,1.387548 
	C215.700012,1.000000 218.400024,1.000000 221.550018,1.000000 
z"/>
<path fill="#FFFFFF" opacity="1.000000" stroke="none" 
	d="
M207.583344,1.000000 
	C206.749237,4.298880 204.838562,3.171610 202.942932,1.381247 
	C204.388885,1.000000 205.777786,1.000000 207.583344,1.000000 
z"/>
<path fill="#FFFFFF" opacity="1.000000" stroke="none" 
	d="
M199.600006,0.999999 
	C198.742172,1.236275 197.484329,1.472552 196.113251,1.354414 
	C197.066666,1.000000 198.133347,1.000000 199.600006,0.999999 
z"/>
<path fill="#E1E2E2" opacity="1.000000" stroke="none" 
	d="
M223.333328,409.000000 
	C223.491943,408.699371 223.983887,408.398773 224.789429,408.162415 
	C225.103043,408.226624 225.060028,408.614441 225.030014,408.807220 
	C224.555557,409.000000 224.111099,409.000000 223.333328,409.000000 
z"/>
<path fill="#E1E2E2" opacity="1.000000" stroke="none" 
	d="
M1.000000,408.500000 
	C1.338096,408.079163 1.609211,408.259155 1.906672,408.770020 
	C1.666667,409.000000 1.333333,409.000000 1.000000,408.500000 
z"/>
<path fill="#E1E2E2" opacity="1.000000" stroke="none" 
	d="
M424.500000,409.000000 
	C424.090424,408.669769 424.275177,408.405518 424.777161,408.103638 
	C425.000000,408.333344 425.000000,408.666656 424.500000,409.000000 
z"/>
<path fill="#A1A1A1" opacity="1.000000" stroke="none" 
	d="
M149.987076,128.995605 
	C155.934845,125.052956 161.542770,120.407303 167.908768,117.329788 
	C177.856384,112.520798 193.474396,116.361626 194.460480,129.328262 
	C194.955292,135.834946 193.765625,143.122391 191.098083,149.048615 
	C187.896957,156.160263 182.524048,162.363586 177.678421,168.641357 
	C174.451874,172.821503 170.158920,172.888229 166.359207,169.607742 
	C161.886475,165.746201 160.995224,160.988815 164.160629,157.031586 
	C165.289246,155.620667 166.803925,154.524628 168.087616,153.230515 
	C171.577225,149.712555 175.501617,146.545990 175.435669,140.775665 
	C175.417877,139.219727 176.927490,137.646332 178.041275,135.489868 
	C173.529068,135.117584 169.600403,136.020523 166.533432,138.803680 
	C162.005630,142.912476 157.735153,147.332336 153.618484,151.859238 
	C149.198196,156.720016 144.841110,161.679108 140.938019,166.951782 
	C139.053284,169.497879 138.415817,172.932541 136.966461,175.841736 
	C131.178741,187.458954 124.600151,198.741409 119.661911,210.704086 
	C115.619743,220.496048 111.551407,230.719604 112.043365,241.641052 
	C112.372536,248.948639 113.645813,255.724228 118.780281,262.309235 
	C124.831177,270.069550 132.699585,271.358582 140.745407,272.853607 
	C149.370621,274.456299 157.952362,273.680634 166.609894,270.866394 
	C174.617371,268.263489 183.461121,268.297028 191.562500,265.903412 
	C202.315018,262.726501 212.688705,258.277039 223.255402,254.457993 
	C230.215363,251.942520 237.103470,249.030533 244.273376,247.381226 
	C247.605042,246.614853 251.386963,248.612122 251.627472,253.807098 
	C249.215363,255.844498 247.098114,257.289917 244.980865,258.735321 
	C243.240509,259.515839 241.500168,260.296356 239.125153,261.222961 
	C237.656616,262.216278 236.822769,263.063568 235.988922,263.910858 
	C235.063721,264.383911 234.138504,264.856964 232.725830,265.668213 
	C231.158081,266.323181 230.077789,266.639954 228.997498,266.956726 
	C227.114410,267.371643 225.231323,267.786591 222.708603,268.508118 
	C219.378922,270.203888 216.688904,271.593140 213.998871,272.982361 
	C208.443329,275.237213 202.908920,277.546875 197.315292,279.702972 
	C196.125122,280.161713 194.719391,280.061218 192.699692,280.495941 
	C188.637909,281.603149 185.289429,282.432800 181.940948,283.262482 
	C181.158859,283.456909 180.376770,283.651306 178.927048,283.979553 
	C175.170288,285.020020 172.081146,285.926636 168.992004,286.833252 
	C167.936081,286.891754 166.880142,286.950256 165.015228,287.030426 
	C161.085190,287.981567 157.964142,288.911072 154.843079,289.840576 
	C153.818970,289.821930 152.794876,289.803314 151.116959,289.562805 
	C149.293533,289.282410 148.123917,289.223877 146.954300,289.165314 
	C135.542938,288.582611 124.434082,285.808167 114.872345,279.967621 
	C105.763809,274.403870 98.946388,266.694366 96.532379,254.855606 
	C93.792511,241.418854 97.032532,229.176834 101.412857,217.522125 
	C108.874138,197.669922 118.214851,178.510422 127.126678,159.226578 
	C129.367310,154.378204 132.977371,150.162720 136.393097,145.196915 
	C138.257126,142.860580 139.686111,140.983719 141.115112,139.106842 
	C142.068359,137.958694 143.021606,136.810547 144.367371,135.222687 
	C146.502274,132.853851 148.244675,130.924728 149.987076,128.995605 
z"/>
<path fill="#A2A2A2" opacity="1.000000" stroke="none" 
	d="
M237.184662,106.153702 
	C245.525909,105.811081 246.859100,106.533760 245.957626,114.844070 
	C245.052216,123.190521 242.598099,131.365082 240.898148,139.630478 
	C239.542542,146.221634 237.511322,152.799011 237.198441,159.449234 
	C236.762939,168.705643 237.279129,178.055649 238.055222,187.309616 
	C239.461792,204.081268 254.995743,209.785416 266.728058,201.729248 
	C274.619751,196.310272 282.274384,190.004883 288.420746,182.731812 
	C295.064362,174.870331 301.229919,165.977264 304.991241,156.497482 
	C308.255432,148.270538 308.256256,138.626282 308.979401,129.551056 
	C309.594574,121.830620 315.309052,117.383209 322.518219,120.229195 
	C323.656982,120.678741 324.638916,122.610703 324.908752,124.008713 
	C327.617310,138.040985 325.321838,151.852631 322.480560,165.549866 
	C320.859619,173.364120 317.934052,180.922211 316.522461,188.762466 
	C313.361389,206.319565 310.465759,223.938980 308.098053,241.618179 
	C306.957062,250.137726 306.775055,258.867371 307.086121,267.468353 
	C307.265839,272.436310 309.086334,277.400513 310.566956,282.244568 
	C311.427551,285.060120 313.249176,286.254913 316.732758,285.068054 
	C318.737396,284.385010 322.839111,285.038330 323.540466,286.377014 
	C324.895905,288.964142 325.004181,292.477264 321.234650,294.485046 
	C319.829224,295.233612 318.503510,296.837769 317.946411,298.348602 
	C315.758362,304.282227 309.880646,306.373474 305.490936,301.685852 
	C301.392426,297.309204 297.694519,292.042938 295.508820,286.502167 
	C291.593536,276.576721 290.459839,266.305420 292.196075,255.285233 
	C295.318787,235.464813 296.881409,215.398468 299.074127,195.432480 
	C299.138794,194.844009 298.960327,194.228836 298.723480,192.036346 
	C292.014923,198.951508 286.529419,205.397797 280.227173,210.910324 
	C271.522675,218.524094 261.422119,223.828156 249.416199,222.569443 
	C246.130417,222.224976 242.757278,219.547424 240.089172,217.188461 
	C235.621887,213.238754 230.601974,209.279419 227.833191,204.219574 
	C224.994247,199.031540 223.341873,192.516968 223.346771,186.584793 
	C223.358551,172.314774 223.652603,157.899918 225.724579,143.821915 
	C227.424042,132.274811 231.849625,121.128944 235.397675,109.269714 
	C236.213928,107.874031 236.699280,107.013863 237.184662,106.153702 
z"/>
<path fill="#EBEBEB" opacity="1.000000" stroke="none" 
	d="
M392.768860,49.149761 
	C390.238495,45.852146 389.896454,42.518646 392.812714,40.077602 
	C394.071930,39.023590 398.322845,39.073055 398.561554,39.674412 
	C400.031158,43.376648 401.214325,47.360703 401.373505,51.296295 
	C401.413086,52.274830 397.326599,53.420258 395.136627,54.488972 
	C394.892609,53.948235 394.648560,53.407494 394.404510,52.866756 
	C395.824158,52.023117 397.243835,51.179482 399.397705,49.899517 
	C396.675903,49.684624 394.872437,49.542240 392.768860,49.149761 
z"/>
<path fill="#EBEBEB" opacity="1.000000" stroke="none" 
	d="
M121.822136,151.860641 
	C122.817017,151.058243 123.584229,150.515060 125.308167,149.294479 
	C120.148865,149.194122 115.879959,148.353165 117.239967,142.979843 
	C117.724663,141.064835 120.621239,139.479553 122.757843,138.454483 
	C123.314262,138.187531 125.684425,140.372742 126.281410,141.819580 
	C127.258583,144.187851 128.077469,146.948410 127.779739,149.399780 
	C127.584152,151.010147 125.366486,152.434906 123.878136,153.742157 
	C123.716537,153.884079 122.383919,152.692749 121.822136,151.860641 
z"/>
<path fill="#EBEBEB" opacity="1.000000" stroke="none" 
	d="
M114.697174,147.654633 
	C115.656319,152.007690 113.313454,154.262329 109.974052,154.609055 
	C108.350731,154.777603 105.968895,152.883804 104.828133,151.283646 
	C102.899544,148.578400 103.939262,145.819931 106.596024,144.009399 
	C110.771431,141.163971 112.307747,145.191406 114.697174,147.654633 
z"/>
<path fill="#EBEBEB" opacity="1.000000" stroke="none" 
	d="
M382.994019,44.004494 
	C387.486389,44.424526 388.664703,47.431698 387.990906,50.622242 
	C387.634277,52.311028 384.560486,55.031853 383.698761,54.703182 
	C381.239075,53.765018 378.106018,51.877201 377.407135,49.674648 
	C376.361572,46.379623 379.203918,44.430969 382.994019,44.004494 
z"/>
<path fill="#EBEBEB" opacity="1.000000" stroke="none" 
	d="
M404.327148,42.576290 
	C402.295654,38.717789 403.084045,36.062954 407.004181,34.943737 
	C410.035919,34.078159 412.909149,34.936806 413.779510,38.182472 
	C414.617950,41.309032 414.554077,45.032654 410.311096,45.566315 
	C408.521698,45.791374 406.460175,43.853241 404.327148,42.576290 
z"/>
<path fill="#EBEBEB" opacity="1.000000" stroke="none" 
	d="
M155.138123,290.088013 
	C157.964142,288.911072 161.085190,287.981567 164.622925,287.089722 
	C166.199448,290.505493 169.338272,294.137787 164.092392,296.815063 
	C159.700714,299.056396 156.846268,296.867218 155.138123,290.088013 
z"/>
<path fill="#EBEBEB" opacity="1.000000" stroke="none" 
	d="
M169.021957,287.219727 
	C172.081146,285.926636 175.170288,285.020020 178.645081,284.106873 
	C179.430038,285.857544 179.746902,287.638458 180.244202,289.367523 
	C181.701935,294.435638 179.069489,297.161194 172.979141,296.191437 
	C174.195358,294.875122 175.211380,293.775482 175.378372,293.594757 
	C173.201233,291.533875 171.126572,289.570007 169.021957,287.219727 
z"/>
<path fill="#EBEBEB" opacity="1.000000" stroke="none" 
	d="
M140.826782,138.881958 
	C139.686111,140.983719 138.257126,142.860580 136.552979,144.884003 
	C132.344193,145.491898 129.920456,143.589096 130.197556,139.805847 
	C130.342545,137.826202 131.942123,134.959549 133.606949,134.290436 
	C137.133591,132.873062 139.516739,135.112320 140.826782,138.881958 
z"/>
<path fill="#EBEBEB" opacity="1.000000" stroke="none" 
	d="
M225.307800,101.697906 
	C226.722229,103.286873 228.185028,104.564766 228.792007,106.166901 
	C229.360428,107.667290 229.685333,110.522568 228.951797,111.003410 
	C227.158310,112.179054 224.647522,112.823074 222.517288,112.635880 
	C221.704453,112.564445 221.168243,109.628494 220.461044,108.017715 
	C218.420868,103.370888 219.704361,101.064095 225.307800,101.697906 
M222.401871,105.340775 
	C222.939026,105.472687 223.474487,105.614960 224.018723,105.703316 
	C224.043686,105.707375 224.147354,105.226738 224.214355,104.971832 
	C223.599442,104.907845 222.984512,104.843857 222.401871,105.340775 
z"/>
<path fill="#EBEBEB" opacity="1.000000" stroke="none" 
	d="
M194.429230,112.350143 
	C199.977264,110.086739 200.920883,110.482933 202.793198,115.776955 
	C201.205338,116.697876 199.550156,117.657837 197.144196,119.053246 
	C199.821487,118.828987 201.696320,118.671951 204.826569,118.409752 
	C202.181671,122.361259 199.144577,122.777359 196.373352,121.487907 
	C192.486786,119.679497 192.319580,116.265076 194.429230,112.350143 
z"/>
<path fill="#EBEBEB" opacity="1.000000" stroke="none" 
	d="
M273.145630,245.129822 
	C277.876221,244.461151 281.927094,247.793427 281.739716,252.130478 
	C281.697784,253.100708 280.528687,254.579544 279.602783,254.838562 
	C277.660767,255.381805 275.365234,255.829041 273.533081,255.270950 
	C271.677826,254.705856 271.377045,247.243118 273.145630,245.129822 
M274.461365,247.688797 
	C275.011688,248.027054 275.562042,248.365326 276.112396,248.703583 
	C276.249115,248.429092 276.385834,248.154602 276.522552,247.880112 
	C275.983215,247.675842 275.443878,247.471573 274.461365,247.688797 
z"/>
<path fill="#EBEBEB" opacity="1.000000" stroke="none" 
	d="
M324.172119,395.934113 
	C325.433594,393.933136 326.753967,392.313568 328.327148,390.383911 
	C326.827271,390.489960 325.242828,390.601990 323.658386,390.713989 
	C323.506622,390.214600 323.354858,389.715179 323.203094,389.215759 
	C325.019836,388.740723 327.564453,387.287720 328.506012,387.988525 
	C330.649811,389.584198 332.399323,392.069946 333.456543,394.556458 
	C333.795624,395.353943 331.739502,397.899780 330.285461,398.562683 
	C327.965515,399.620331 325.304413,399.587067 324.172119,395.934113 
z"/>
<path fill="#EBEBEB" opacity="1.000000" stroke="none" 
	d="
M245.014236,259.133301 
	C247.098114,257.289917 249.215363,255.844498 251.575928,254.181763 
	C256.338501,257.542572 256.286285,257.750977 249.062012,262.052277 
	C251.779831,261.819611 253.604752,261.663361 255.429672,261.507141 
	C255.689499,261.918335 255.949326,262.329498 256.209137,262.740692 
	C254.889511,263.491577 253.645142,264.661163 252.236053,264.914398 
	C248.098267,265.658142 245.676376,263.688812 245.014236,259.133301 
z"/>
<path fill="#EBEBEB" opacity="1.000000" stroke="none" 
	d="
M213.998779,273.355286 
	C216.688904,271.593140 219.378922,270.203888 222.414490,268.714783 
	C222.957199,270.727448 223.154358,272.839996 223.346176,274.895233 
	C217.050476,278.884094 215.905334,278.732056 213.998779,273.355286 
z"/>
<path fill="#EBEBEB" opacity="1.000000" stroke="none" 
	d="
M102.563438,154.672241 
	C103.138046,158.657425 100.272346,159.076492 99.115677,157.035461 
	C96.834793,153.010712 95.829529,148.257080 94.407608,143.769745 
	C94.338554,143.551834 95.330505,142.997726 95.949265,142.503662 
	C98.144989,146.572479 100.247307,150.468201 102.563438,154.672241 
z"/>
<path fill="#EBEBEB" opacity="1.000000" stroke="none" 
	d="
M182.011536,283.612122 
	C185.289429,282.432800 188.637909,281.603149 192.362030,280.676575 
	C191.618790,283.029938 191.123947,286.648651 189.235214,287.657318 
	C186.383102,289.180450 183.055069,287.969849 182.011536,283.612122 
z"/>
<path fill="#EBEBEB" opacity="1.000000" stroke="none" 
	d="
M370.809998,44.371521 
	C372.789001,48.744556 374.509094,52.848888 376.386963,57.329685 
	C374.693695,58.277031 372.899872,58.945553 371.730225,55.663666 
	C370.694885,52.758701 369.285187,49.988438 368.213531,47.094719 
	C367.405640,44.913109 368.175171,44.046192 370.809998,44.371521 
z"/>
<path fill="#EBEBEB" opacity="1.000000" stroke="none" 
	d="
M146.977280,289.537933 
	C148.123917,289.223877 149.293533,289.282410 150.732147,289.557556 
	C152.270859,293.244019 153.540604,296.713806 155.112534,301.009399 
	C148.072067,299.767761 149.000946,293.756683 146.977280,289.537933 
z"/>
<path fill="#EBEBEB" opacity="1.000000" stroke="none" 
	d="
M210.162140,117.779900 
	C208.896774,117.058716 207.536865,116.315430 207.025269,115.187401 
	C206.149658,113.256851 205.805069,111.085464 205.055984,108.353157 
	C207.147415,107.625015 209.134720,106.933136 211.122009,106.241249 
	C211.546204,106.647324 211.970383,107.053391 212.394577,107.459465 
	C206.066483,110.255920 211.552170,114.255928 210.162140,117.779900 
z"/>
<path fill="#EBEBEB" opacity="1.000000" stroke="none" 
	d="
M258.018799,254.833725 
	C257.810181,250.271530 259.934479,249.328461 262.402283,249.562027 
	C262.402283,254.285583 262.402283,257.959930 262.402283,261.634277 
	C261.877045,261.670441 261.351776,261.706573 260.826538,261.742737 
	C259.896515,259.573303 258.966522,257.403900 258.018799,254.833725 
z"/>
<path fill="#EBEBEB" opacity="1.000000" stroke="none" 
	d="
M313.897675,399.098755 
	C314.164337,401.138947 314.336670,402.808502 314.509033,404.478027 
	C313.694824,404.597839 312.880585,404.717682 312.066376,404.837494 
	C311.530243,401.329651 310.682190,397.821014 310.690613,394.314453 
	C310.692566,393.499695 313.611938,392.691956 315.787811,391.572968 
	C314.916901,394.713135 314.360138,396.720612 313.897675,399.098755 
z"/>
<path fill="#ABABAB" opacity="1.000000" stroke="none" 
	d="
M81.812683,297.163818 
	C81.073822,295.516052 80.503616,294.193298 79.933411,292.870514 
	C80.336784,292.594025 80.740166,292.317505 81.143539,292.040985 
	C83.986282,295.908600 86.829033,299.776215 89.671783,303.643829 
	C89.201691,304.039886 88.731606,304.435944 88.261513,304.832001 
	C86.168121,302.384247 84.074722,299.936523 81.812683,297.163818 
z"/>
<path fill="#EBEBEB" opacity="1.000000" stroke="none" 
	d="
M283.664581,245.282898 
	C283.489014,243.683685 283.489014,242.436722 283.489014,241.189743 
	C284.090698,241.074631 284.692413,240.959503 285.294098,240.844391 
	C286.558838,244.271423 287.823547,247.698456 289.207458,251.448410 
	C285.908234,251.100922 285.908234,251.100922 283.664581,245.282898 
z"/>
<path fill="#EBEBEB" opacity="1.000000" stroke="none" 
	d="
M236.877960,105.937683 
	C236.699280,107.013863 236.213928,107.874031 235.479309,108.894569 
	C231.250946,106.217850 231.509293,102.291885 231.203995,98.510757 
	C231.785446,98.319946 232.366913,98.129128 232.948364,97.938309 
	C234.156006,100.532761 235.363647,103.127213 236.877960,105.937683 
z"/>
<path fill="#EBEBEB" opacity="1.000000" stroke="none" 
	d="
M338.031555,393.903229 
	C336.830109,390.595428 335.822815,387.608002 334.815552,384.620575 
	C335.671783,384.326416 336.528046,384.032257 337.384308,383.738098 
	C338.527557,387.029785 339.670776,390.321472 340.814026,393.613159 
	C339.951233,393.816650 339.088470,394.020111 338.031555,393.903229 
z"/>
<path fill="#EBEBEB" opacity="1.000000" stroke="none" 
	d="
M229.021393,267.265961 
	C230.077789,266.639954 231.158081,266.323181 232.594330,265.969238 
	C234.694046,270.980072 234.053848,271.875366 227.561447,273.439056 
	C225.369522,270.807220 232.502960,270.509918 229.021393,267.265961 
z"/>
<path fill="#EBEBEB" opacity="1.000000" stroke="none" 
	d="
M236.029373,264.271057 
	C236.822769,263.063568 237.656616,262.216278 238.791870,261.355255 
	C240.490265,263.251129 241.887222,265.160767 243.534866,267.413086 
	C241.089600,270.220398 239.437744,269.890900 236.029373,264.271057 
z"/>
<path fill="#EBEBEB" opacity="1.000000" stroke="none" 
	d="
M149.582382,128.998810 
	C148.244675,130.924728 146.502274,132.853851 144.459595,134.912247 
	C140.948883,133.104370 141.464249,131.245178 144.491791,129.869781 
	C145.895462,129.232086 147.606171,129.270233 149.582382,128.998810 
z"/>
<path fill="#ABABAB" opacity="1.000000" stroke="none" 
	d="
M78.629700,358.360779 
	C65.529816,347.594757 60.733856,341.262848 56.321095,328.691742 
	C64.097908,332.077789 70.718079,335.455505 75.709045,342.522827 
	C79.623825,348.066223 85.930382,351.925140 91.198807,356.504303 
	C92.316986,357.476227 93.541008,358.326385 94.698349,359.218811 
	C90.385918,366.050415 88.161430,366.446167 82.275284,361.565918 
	C81.121391,360.609253 80.032745,359.573914 78.629700,358.360779 
z"/>
<path fill="#EBEBEB" opacity="1.000000" stroke="none" 
	d="
M14.090324,350.821136 
	C12.001588,348.106018 10.191852,345.201874 8.382114,342.297729 
	C13.105540,342.538605 13.714520,343.703247 14.090324,350.821136 
z"/>
<path fill="#ABABAB" opacity="1.000000" stroke="none" 
	d="
M104.443390,372.449463 
	C101.650742,370.641113 99.176079,368.992798 96.701416,367.344513 
	C97.084694,366.762421 97.467979,366.180328 97.851257,365.598236 
	C100.677124,367.451996 103.502998,369.305786 106.328873,371.159546 
	C105.806374,371.642883 105.283875,372.126190 104.443390,372.449463 
z"/>
<path fill="#ABABAB" opacity="1.000000" stroke="none" 
	d="
M95.551453,365.513000 
	C95.525856,365.512970 95.577042,365.513031 95.551453,365.513000 
z"/>
<path fill="#FFFFFF" opacity="1.000000" stroke="none" 
	d="
M222.385742,105.060318 
	C222.984512,104.843857 223.599442,104.907845 224.214355,104.971832 
	C224.147354,105.226738 224.043686,105.707375 224.018723,105.703316 
	C223.474487,105.614960 222.939026,105.472687 222.385742,105.060318 
z"/>
<path fill="#FFFFFF" opacity="1.000000" stroke="none" 
	d="
M274.682953,247.478043 
	C275.443878,247.471573 275.983215,247.675842 276.522552,247.880112 
	C276.385834,248.154602 276.249115,248.429092 276.112396,248.703583 
	C275.562042,248.365326 275.011688,248.027054 274.682953,247.478043 
z"/>
</svg>